<svg version="1.1" id="Layer_1" xmlns="http://www.w3.org/2000/svg" xmlns:xlink="http://www.w3.org/1999/xlink" x="0px" y="0px" viewBox="0 0 500 500" style="width: 188px;" xml:space="preserve" data-imageid="team-work-3-35" imageName="Team Work 3" class="illustrations_image">
<style type="text/css">
	.st0_team-work-3-35{fill:#68E1FD;}
	.st1_team-work-3-35{fill:#093F68;}
	.st2_team-work-3-35{fill:#E28362;}
	.st3_team-work-3-35{fill:#FFBC0E;}
	.st4_team-work-3-35{fill:#FFC9B0;}
	.st5_team-work-3-35{fill:#F56132;}
	.st6_team-work-3-35{fill:#70CC40;}
</style>
<g id="background_team-work-3-35">
	<path class="st0_team-work-3-35 targetColor" d="M429.1,250.2c0,23.8-4.7,47.5-14,69.4c-0.3,0.6-0.6,1.3-0.9,1.9c-10.3,23.7-25.7,44.9-45,62.1&#xA;&#9;&#9;c-0.5,0.5-1,0.9-1.5,1.3c-74.4,65.1-187.5,57.6-252.6-16.8S57.6,180.7,132,115.6c32.7-28.6,74.7-44.4,118.2-44.3&#xA;&#9;&#9;c98.7-0.1,178.8,79.8,178.9,178.5C429.1,249.9,429.1,250,429.1,250.2z" style="fill: rgb(220, 53, 69);"/>
	<path class="st1_team-work-3-35" d="M250.2,431.1c-99.9,0-180.9-81-180.9-180.9c0-82.3,55.5-154.2,135.2-175c25.7-6.6,52.5-7.6,78.6-2.9&#xA;&#9;&#9;c98.3,18.2,163.3,112.6,145.1,210.9c-2.4,12.8-6.1,25.3-11.1,37.3c-0.3,0.7-0.6,1.3-0.9,2c-10.5,23.9-26,45.4-45.5,62.8&#xA;&#9;&#9;c-0.3,0.3-0.6,0.6-1,0.9l-0.5,0.4C336.2,415.2,293.9,431.1,250.2,431.1z M250.2,73.2c-97.6-0.1-176.8,78.9-176.9,176.6&#xA;&#9;&#9;c0,0.1,0,0.3,0,0.4c-0.1,24.6,5.1,49,15.1,71.6c39.6,89.4,144.1,129.8,233.5,90.2c16.3-7.2,31.3-16.8,44.7-28.5l0.5-0.4&#xA;&#9;&#9;c0.3-0.3,0.6-0.5,0.9-0.8c19.1-17,34.3-38,44.5-61.5c0.3-0.7,0.6-1.3,0.8-1.9c37.9-90.2-4.5-193.9-94.6-231.8&#xA;&#9;&#9;c-11.7-4.9-23.9-8.6-36.4-10.9C271.7,74.2,260.9,73.2,250.2,73.2z"/>
</g>
<g id="hand-3_team-work-3-35">
	<path class="st2_team-work-3-35" d="M154.3,228.2c-1.7,5.6-9.5,13.6-17.8,26.4s-4,35.9-4,35.9l-10.3,10.3l44.1,44.1c7.9-7.5,24.3-19.3,35.8-26.6&#xA;&#9;&#9;c13-8.3,51.5-48.2,56.3-53.4c5.4-5.9,2-15-5.4-14.5c-5.7,0.4-13,6.7-16.3,9.7c4.5-4.4,16.9-16.9,20.2-22.9c4-7.4-0.4-11.4-6.6-14.3&#xA;&#9;&#9;c-1.9-0.9-4.4,0-7.1,1.8c1.7-1.7,3.3-3.6,4.7-5.6c2.9-4.9,1.2-12-6.4-14.2c-4-1.2-8.3,1.6-11.4,4.5c6.9-8.4,6.3-12.2,0.9-17.5&#xA;&#9;&#9;c-6.4-6.4-7.8-3.4-22,10.8l-34.5,34.5c0,0,5.4-20.6,4.3-27s-6.5-8.5-14.1-3.8S156,222.6,154.3,228.2z"/>
	<path class="st1_team-work-3-35" d="M166.2,346.9c-0.5,0-1-0.2-1.4-0.6l-44.1-44.1c-0.7-0.8-0.7-2,0-2.8l9.6-9.6c-0.8-4.8-3.2-24.5,4.5-36.3&#xA;&#9;&#9;c3.5-5.3,6.8-9.7,9.7-13.6c3.9-5.2,7-9.3,7.9-12.3c0.3-1.1,0.6-2.4,1-3.9c1.5-6.3,3.5-14.9,10.2-19.1c5.9-3.6,9.9-3.1,12.1-2.1&#xA;&#9;&#9;c2.6,1.2,4.4,3.8,5,7.3c0.7,4.4-1.2,14.2-2.7,21l29.6-29.6c1.4-1.4,2.8-2.8,4-4c7.2-7.2,10.4-10.6,14.1-10.6l0,0&#xA;&#9;&#9;c2.5,0,4.5,1.5,6.7,3.8c4.4,4.4,5.7,8.1,4,12.6c1.8-0.6,3.8-0.7,5.7-0.2c3.8,0.9,6.9,3.6,8.4,7.2c1.3,3.3,1,7-0.9,10&#xA;&#9;&#9;c-0.1,0.1-0.2,0.3-0.3,0.5c0.7,0.1,1.3,0.2,1.9,0.5c3.2,1.5,7.5,3.9,8.9,8.1c0.9,2.7,0.4,5.7-1.4,8.9c-1.5,2.7-4.8,6.7-8.4,10.7&#xA;&#9;&#9;c0.8-0.2,1.7-0.4,2.6-0.5c3.9-0.4,7.5,1.8,9.1,5.3c1.9,4.2,1.1,9.2-2.1,12.5c-3.3,3.6-43.1,45.1-56.7,53.7&#xA;&#9;&#9;c-11.2,7.1-27.5,18.8-35.5,26.4C167.3,346.7,166.8,346.9,166.2,346.9z M124.9,300.8l41.4,41.4c8.6-7.7,23.9-18.7,34.7-25.5&#xA;&#9;&#9;c12.6-8,50.2-46.8,55.9-53.1c2.1-2.2,2.7-5.4,1.5-8.1c-0.9-2.1-3.1-3.3-5.3-3.1c-3.5,0.2-9.2,3.7-15.1,9.2&#xA;&#9;&#9;c-0.9,0.6-2.2,0.3-2.8-0.6c-0.5-0.7-0.4-1.6,0-2.3c3.9-3.8,16.7-16.6,19.9-22.4c1.2-2.3,1.6-4.2,1.1-5.8c-0.7-2.1-2.9-4-6.8-5.8&#xA;&#9;&#9;c-1-0.5-2.9,0.1-5.2,1.6c-1,0.5-2.2,0.1-2.7-0.9c-0.3-0.7-0.3-1.5,0.2-2.1c1.7-1.6,3.1-3.3,4.4-5.2c1.2-2,1.4-4.3,0.6-6.5&#xA;&#9;&#9;c-1.1-2.4-3.2-4.2-5.8-4.8c-3.2-0.9-7,1.7-9.6,4.1c-0.9,0.7-2.1,0.5-2.8-0.4c-0.5-0.7-0.5-1.6-0.1-2.3c6.6-7.9,5.4-10.5,1-14.9&#xA;&#9;&#9;c-1.8-1.8-3-2.6-4-2.6l0,0c-2,0-5.5,3.5-11.3,9.4c-1.2,1.2-2.5,2.6-4,4l-34.4,34.5c-0.6,0.6-1.6,0.7-2.4,0.3&#xA;&#9;&#9;c-0.8-0.4-1.1-1.3-0.9-2.2c1.5-5.6,5.1-21.3,4.3-26.2c-0.2-1.5-0.9-3.5-2.7-4.3c-2-0.9-5-0.3-8.4,1.9c-5.4,3.3-7.1,11-8.4,16.6&#xA;&#9;&#9;c-0.4,1.5-0.7,2.9-1,4.1l0,0c-1.1,3.6-4.2,7.8-8.5,13.5c-2.9,3.8-6.2,8.2-9.6,13.4c-7.8,11.9-3.8,34.2-3.8,34.5&#xA;&#9;&#9;c0.1,0.6-0.1,1.3-0.6,1.8L124.9,300.8z M154.3,228.2L154.3,228.2z"/>
	<path class="st1_team-work-3-35" d="M190.3,251.2c-0.5,0-1-0.2-1.4-0.6c-0.7-0.8-0.7-2,0-2.8l39.8-39.8c0.9-0.6,2.1-0.4,2.8,0.5&#xA;&#9;&#9;c0.5,0.7,0.5,1.6,0,2.3l-39.8,39.8C191.3,251,190.8,251.2,190.3,251.2z"/>
	<path class="st1_team-work-3-35" d="M204.5,265.3c-1.1,0-2-1-1.9-2.1c0-0.5,0.2-0.9,0.5-1.3l38.7-38.7c0.9-0.6,2.1-0.4,2.8,0.5&#xA;&#9;&#9;c0.5,0.7,0.5,1.6,0,2.3l-38.7,38.7C205.5,265.1,205,265.3,204.5,265.3z"/>
	<path class="st1_team-work-3-35" d="M217.9,280.9c-1.1,0-2-1-1.9-2.1c0-0.5,0.2-0.9,0.5-1.3l18.9-18.9c0.9-0.6,2.1-0.4,2.8,0.5&#xA;&#9;&#9;c0.5,0.7,0.5,1.6,0,2.3l-18.9,18.9C218.9,280.7,218.4,280.9,217.9,280.9z"/>
	<path class="st3_team-work-3-35" d="M170.1,348.8l-36.8,36.8c-20.1-17.3-36-38.9-46.8-63.1l28.7-28.7l51.1,51.1L170.1,348.8z"/>
	<path class="st1_team-work-3-35" d="M133.3,387.6c-0.5,0-0.9-0.2-1.3-0.5c-20.3-17.5-36.4-39.3-47.3-63.8c-0.3-0.7-0.2-1.6,0.4-2.2l28.7-28.7&#xA;&#9;&#9;c0.8-0.8,2-0.8,2.8,0l54.9,54.9c0.7,0.8,0.7,2,0,2.8L134.7,387C134.3,387.4,133.8,387.6,133.3,387.6z M88.8,323&#xA;&#9;&#9;c10.4,22.9,25.5,43.4,44.3,60l34.1-34.1l-52.2-52.1L88.8,323z"/>
</g>
<g id="hand-2_team-work-3-35">
	<path class="st4_team-work-3-35" d="M272.5,316.2c5.6,1.7,13.6,9.5,26.4,17.8s35.9,4,35.9,4l10.3,10.3l44.1-44.1c-7.5-8-19.3-24.3-26.6-35.8&#xA;&#9;&#9;c-8.3-13.1-48.2-51.6-53.4-56.3c-5.9-5.4-15-2-14.5,5.4c0.4,5.7,6.7,13.1,9.7,16.3c-4.4-4.5-16.9-16.9-22.9-20.2&#xA;&#9;&#9;c-7.4-4-11.4,0.4-14.3,6.6c-0.9,1.9,0,4.5,1.8,7.1c-1.7-1.7-3.6-3.3-5.5-4.7c-4.9-2.9-12-1.2-14.2,6.4c-1.2,4,1.6,8.3,4.5,11.4&#xA;&#9;&#9;c-8.4-6.9-12.2-6.3-17.5-0.9c-6.4,6.4-3.4,7.8,10.8,22l34.5,34.5c0,0-20.6-5.4-27-4.3s-8.5,6.5-3.8,14.1S266.9,314.5,272.5,316.2z"/>
	<path class="st1_team-work-3-35" d="M345.1,350.4c-0.5,0-1-0.2-1.4-0.6l-9.6-9.6c-4.8,0.7-24.5,3.2-36.3-4.5c-5.3-3.5-9.7-6.8-13.6-9.7&#xA;&#9;&#9;c-5.2-3.9-9.3-7-12.3-7.9l0,0c-1.1-0.3-2.4-0.6-3.9-1c-6.3-1.5-14.9-3.5-19.1-10.2c-3.6-5.9-3.1-9.8-2.1-12.1&#xA;&#9;&#9;c1.2-2.6,3.8-4.4,7.3-5c4.4-0.7,14.2,1.2,21,2.7l-29.6-29.5l-4-4c-7.2-7.2-10.6-10.4-10.6-14.1c0-2.5,1.5-4.5,3.8-6.8&#xA;&#9;&#9;c4.4-4.4,8.1-5.7,12.6-4c-0.6-1.8-0.7-3.8-0.2-5.7c0.9-3.8,3.6-6.9,7.2-8.4c3.3-1.3,7-0.9,10,0.9l0.5,0.3c0.1-0.7,0.2-1.3,0.5-1.9&#xA;&#9;&#9;c1.5-3.2,3.9-7.5,8.1-8.9c2.7-0.9,5.7-0.4,8.9,1.4c2.7,1.5,6.7,4.8,10.7,8.4c-0.2-0.8-0.4-1.7-0.5-2.6c-0.3-3.9,1.8-7.5,5.3-9.1&#xA;&#9;&#9;c4.2-1.9,9.2-1.1,12.5,2.1c4.1,3.8,45,43,53.7,56.7c7.1,11.2,18.8,27.5,26.4,35.5c0.7,0.8,0.7,2,0,2.7l-44.1,44.1&#xA;&#9;&#9;C346.2,350.2,345.6,350.4,345.1,350.4z M334.8,336.1c0.5,0,1,0.2,1.4,0.6l8.9,8.9l41.4-41.4c-7.7-8.6-18.7-24-25.5-34.7&#xA;&#9;&#9;c-8-12.6-46.8-50.2-53.1-55.9c-2.2-2.1-5.4-2.7-8.1-1.5c-2.1,0.9-3.3,3.1-3.1,5.4c0.2,3.5,3.7,9.2,9.2,15c0.6,0.9,0.4,2.2-0.5,2.8&#xA;&#9;&#9;c-0.7,0.5-1.6,0.5-2.3,0c-3.8-3.9-16.6-16.7-22.4-19.9c-2.3-1.2-4.2-1.6-5.8-1.1c-2.1,0.7-4,2.9-5.8,6.8c-0.5,1,0.1,2.9,1.6,5.2&#xA;&#9;&#9;c0.5,1,0.1,2.2-0.9,2.7c-0.7,0.3-1.5,0.2-2.1-0.2c-1.6-1.6-3.3-3.1-5.2-4.4c-2-1.2-4.3-1.4-6.5-0.6c-2.4,1.1-4.2,3.2-4.8,5.8&#xA;&#9;&#9;c-0.9,3.2,1.7,7,4.1,9.6c0.7,0.9,0.5,2.1-0.4,2.8c-0.7,0.5-1.6,0.5-2.3,0.1c-7.9-6.6-10.5-5.4-14.9-1c-1.8,1.8-2.6,3-2.6,4&#xA;&#9;&#9;c0,2,3.5,5.5,9.4,11.3c1.2,1.2,2.6,2.5,4,4l34.5,34.5c0.7,0.8,0.6,2.1-0.2,2.8c-0.5,0.4-1.1,0.6-1.7,0.4&#xA;&#9;&#9;c-5.6-1.5-21.2-5.1-26.2-4.3c-1.5,0.2-3.5,0.9-4.3,2.7c-0.9,2-0.3,5,1.9,8.4c3.3,5.4,11,7.1,16.6,8.5c1.5,0.4,2.9,0.7,4.1,1l0,0&#xA;&#9;&#9;c3.6,1.1,7.8,4.2,13.5,8.5c3.8,2.9,8.2,6.1,13.4,9.5c11.9,7.8,34.2,3.8,34.4,3.8C334.5,336.1,334.7,336.1,334.8,336.1z"/>
	<path class="st1_team-work-3-35" d="M293.5,282.1c-0.5,0-1-0.2-1.4-0.6l-39.8-39.8c-0.6-0.9-0.4-2.2,0.5-2.8c0.7-0.5,1.6-0.5,2.3,0l39.8,39.8&#xA;&#9;&#9;c0.8,0.8,0.7,2.1-0.1,2.8C294.5,281.9,294,282.1,293.5,282.1z"/>
	<path class="st1_team-work-3-35" d="M307.7,268c-0.5,0-1-0.2-1.4-0.6l-38.7-38.7c-0.6-0.9-0.4-2.2,0.5-2.8c0.7-0.5,1.6-0.5,2.3,0l38.7,38.7&#xA;&#9;&#9;c0.8,0.8,0.7,2.1-0.1,2.8C308.6,267.8,308.2,268,307.7,268z"/>
	<path class="st1_team-work-3-35" d="M323.2,254.6c-0.5,0-1-0.2-1.4-0.6L303,235.2c-0.9-0.6-1.1-1.9-0.5-2.8c0.6-0.9,1.9-1.1,2.8-0.5&#xA;&#9;&#9;c0.2,0.1,0.4,0.3,0.5,0.5l18.9,18.9c0.8,0.8,0.7,2.1-0.1,2.8C324.2,254.4,323.7,254.6,323.2,254.6L323.2,254.6z"/>
	<path class="st5_team-work-3-35" d="M414.3,321.5c-10.3,23.7-25.7,44.9-45,62.1c-0.5,0.5-1,0.9-1.5,1.3l-29.7-29.6l6.9-6.9l0,0l44.1-44.1l3.9-3.9&#xA;&#9;&#9;L414.3,321.5z"/>
	<path class="st1_team-work-3-35" d="M367.8,386.9c-0.5,0-1-0.2-1.4-0.6l-29.7-29.7c-0.8-0.8-0.8-2,0-2.8l6.9-6.9l0.2-0.1l47.8-47.8&#xA;&#9;&#9;c0.8-0.7,2-0.7,2.8,0l21.2,21.2c0.6,0.6,0.7,1.4,0.4,2.2c-10.5,24-26,45.4-45.5,62.8c-0.3,0.3-0.6,0.6-1,0.9l-0.5,0.4&#xA;&#9;&#9;C368.8,386.8,368.3,386.9,367.8,386.9z M341,355.3l27,27l0.1-0.1c18.8-16.7,33.8-37.3,44-60.2l-18.9-18.8l-46.6,46.6l-0.2,0.1&#xA;&#9;&#9;L341,355.3z"/>
</g>
<g id="hand-1_team-work-3-35">
	<path class="st4_team-work-3-35" d="M301.4,205.9c-2.8-5.2-3-16.4-6.1-31.3s-22.5-28.2-22.5-28.2v-14.6h-62.4c-0.3,10.9-3.6,30.9-6.5,44.2&#xA;&#9;&#9;c-3.4,15.1-2.4,70.5-2.1,77.6c0.3,8,9.2,12,14.1,6.4c3.8-4.3,4.5-14,4.6-18.4c-0.1,6.3-0.1,23.9,1.9,30.5c2.3,8,8.3,7.8,14.8,5.5&#xA;&#9;&#9;c1.9-0.7,3.1-3.2,3.8-6.3c0,2.4,0.2,4.9,0.6,7.2c1.4,5.5,7.6,9.4,14.5,5.5c3.7-2,4.7-7,4.9-11.3c1,10.8,4.2,13,11.8,13&#xA;&#9;&#9;c9,0,8-3.1,8-23.2v-48.8c0,0,10.7,18.4,16.1,22.2s10.6,1.4,12.7-7.3S304.2,211.1,301.4,205.9z"/>
	<path class="st1_team-work-3-35" d="M272.8,287.8c-6.2,0-9.8-1.7-11.8-6.1c-0.9,1.7-2.2,3.2-3.9,4.1c-3.3,2-7.4,2.3-11,0.9&#xA;&#9;&#9;c-3.2-1.4-5.6-4.2-6.4-7.6c0-0.2-0.1-0.4-0.1-0.6c-0.5,0.4-1.1,0.8-1.7,1c-3.3,1.2-8.1,2.5-12,0.5c-2.5-1.3-4.3-3.7-5.3-7.3&#xA;&#9;&#9;c-0.9-3-1.4-8.1-1.6-13.5c-0.4,0.8-0.9,1.5-1.5,2.1c-2.5,3-6.6,4.1-10.3,2.7c-4.3-1.6-7.3-5.7-7.3-10.4c-0.4-8.5-1.2-63.2,2.1-78.1&#xA;&#9;&#9;c2.9-13,6.2-32.8,6.5-43.8c0-1.1,0.9-1.9,2-1.9h62.4c1.1,0,2,0.9,2,2v13.5c3.9,2.8,19.6,15,22.5,28.8c1.3,6.2,2.1,11.6,2.8,16.5&#xA;&#9;&#9;c0.9,6.4,1.6,11.5,3.1,14.3l0,0c0.5,1,1.3,2.2,2,3.4c3.4,5.5,8.1,13,6.3,20.7c-1.6,6.7-4.8,9.2-7.1,10c-2.7,1-5.8,0.4-8.6-1.6&#xA;&#9;&#9;c-3.6-2.6-9.2-10.9-12.9-16.8v41.8c0,2,0,3.9,0,5.6c0.1,10.2,0.1,14.8-2.5,17.5C278.5,287.4,276,287.8,272.8,287.8z M261.1,270.8&#xA;&#9;&#9;c1,0,1.9,0.8,2,1.8c1,10.2,3.6,11.2,9.8,11.2c2.6,0,4-0.3,4.6-1c1.4-1.5,1.4-6.4,1.4-14.7c0-1.7,0-3.6,0-5.6v-48.8&#xA;&#9;&#9;c0-1.1,1-2,2.1-1.9c0.7,0,1.2,0.4,1.6,0.9c2.9,5,11.4,18.6,15.5,21.6c1.3,0.9,3.1,1.8,5,1.1c2.1-0.8,3.7-3.4,4.7-7.3&#xA;&#9;&#9;c1.5-6.1-2.7-12.8-5.8-17.7c-0.8-1.3-1.6-2.6-2.2-3.7l0,0c-1.8-3.4-2.5-8.5-3.5-15.6c-0.7-4.8-1.5-10.1-2.7-16.2&#xA;&#9;&#9;c-2.9-14-21.5-26.9-21.7-27c-0.5-0.4-0.8-1-0.9-1.6v-12.6h-58.7c-0.6,11.5-3.7,30.2-6.5,42.6c-3.3,14.6-2.4,68.6-2,77.1&#xA;&#9;&#9;c0,3,1.9,5.7,4.7,6.8c2.1,0.8,4.5,0.1,5.9-1.6c2.3-2.7,3.9-9.1,4.2-17.1c0-1.1,0.9-1.9,2-1.9c1.1,0,1.9,0.9,1.9,2&#xA;&#9;&#9;c-0.1,5.4-0.1,23.5,1.8,29.9c0.7,2.5,1.8,4.1,3.3,4.9c1.9,1,4.9,0.8,8.9-0.7c1-0.4,1.9-2.1,2.6-4.9c0.3-1.1,1.5-1.6,2.5-1.3&#xA;&#9;&#9;c0.7,0.2,1.3,0.9,1.4,1.7c0,2.3,0.1,4.6,0.5,6.8c0.5,2.2,2.1,4.1,4.2,5c2.5,1,5.3,0.7,7.5-0.7c2.9-1.6,3.7-6.1,3.9-9.7&#xA;&#9;&#9;C259.2,271.7,260,270.8,261.1,270.8L261.1,270.8z"/>
	<path class="st1_team-work-3-35" d="M261.1,274.7c-1.1,0-2-0.9-2-2v-56.2c0.2-1.1,1.2-1.8,2.3-1.6c0.8,0.1,1.5,0.8,1.6,1.6v56.2&#xA;&#9;&#9;C263,273.8,262.1,274.7,261.1,274.7z"/>
	<path class="st1_team-work-3-35" d="M241,273.2c-1.1,0-2-0.9-2-2v-54.7c-0.2-1.1,0.5-2.1,1.6-2.3c1.1-0.2,2.1,0.5,2.3,1.6c0,0.2,0,0.5,0,0.7v54.8&#xA;&#9;&#9;C242.9,272.3,242.1,273.2,241,273.2z"/>
	<path class="st1_team-work-3-35" d="M220.6,243.6c-1.1,0-2-0.9-2-2V215c0.2-1.1,1.2-1.8,2.3-1.7c0.9,0.1,1.5,0.8,1.7,1.7v26.7&#xA;&#9;&#9;C222.5,242.7,221.6,243.6,220.6,243.6z"/>
	<path class="st6_team-work-3-35" d="M282.6,74.2v57.6h-77.7V77C230.3,70.4,256.8,69.5,282.6,74.2L282.6,74.2z"/>
	<path class="st1_team-work-3-35" d="M282.6,133.8h-77.7c-1.1,0-2-0.9-2-2V77c0-0.9,0.6-1.7,1.5-1.9c25.7-6.6,52.5-7.6,78.6-2.8&#xA;&#9;&#9;c0.9,0.2,1.6,1,1.6,1.9v57.6C284.6,132.9,283.7,133.8,282.6,133.8z M206.9,129.8h73.8v-54c-24.5-4.2-49.6-3.3-73.8,2.7V129.8z"/>
</g>
</svg>